<?xml version="1.0"?>
<!DOCTYPE svg PUBLIC "-//W3C//DTD SVG 1.1//EN" 
  "http://www.w3.org/Graphics/SVG/1.1/DTD/svg11.dtd">
<svg version="1.1"
     xmlns="http://www.w3.org/2000/svg"
     xmlns:xlink="http://www.w3.org/1999/xlink"
     width="14cm" height="10cm" 
     viewBox="0 0 7 5">
     
<!--  An example of hierarchical modeling and animation.  A cart moves along a road,
      repeatedly, while the sun rotates in the sky and three windmills rotate in the
      background. -->
     
<defs>

    <g id="wheel" transform="rotate(0)">  <!-- A rotating wheel for the cart -->
       <animateTransform attributeName="transform" attributeType="XML"
                        type="rotate" from="360" to="0" dur="3s" 
                        fill="remove" repeatCount="indefinite"/>   
        <circle cx="0" cy="0" r="1" fill="black"/>
        <circle cx="0" cy="0" r="0.8" fill="lightGray"/>
        <rect x="-0.9" y="-0.05" width="1.8" height=".1" fill="black"/>
        <rect x="-0.9" y="-0.05" width="1.8" height=".1" fill="black" transform="rotate(120)"/>
        <rect x="-0.9" y="-0.05" width="1.8" height=".1" fill="black" transform="rotate(240)"/>
        <circle cx="0" cy="0" r="0.2" fill="black"/>
    </g>

    <g id="cart" transform="translate(2.5,0)"> <!--  A cart made from two wheels and two rects -->
       <animateTransform attributeName="transform" attributeType="XML"
                        type="translate" from="-3,-0.05" to="11,-0.05" dur="15s" 
                        fill="remove" repeatCount="indefinite"/> 
       <g transform="scale(0.3,0.3)">
       <use xlink:href="#wheel" transform="translate(-1.5,-0.1) scale(0.8,0.8)"/>
       <use xlink:href="#wheel" transform="translate(1.5,-0.1) scale(0.8,0.8)"/>
       <rect x="-3" y="0" width="6" height="2" fill="#CC0000"/>
       <rect x="-2.3" y="1.9" width="2.6" height="1" fill="#CC0000"/>
       </g>
    </g>

    <g id="sun" fill="yellow" stroke="#DD8800" stroke-width="0.03" transform="rotate(0)"> <!-- a rotating sun -->
       <animateTransform attributeName="transform" attributeType="XML"
                        type="rotate" from="0" to="360" dur="10s" 
                        fill="remove" repeatCount="indefinite"/>
        <line x1="-0.75" y1="0" x2="0.75" y2="0"/>
        <line x1="-0.75" y1="0" x2="0.75" y2="0" transform="rotate(30)"/>
        <line x1="-0.75" y1="0" x2="0.75" y2="0" transform="rotate(60)"/>
        <line x1="-0.75" y1="0" x2="0.75" y2="0" transform="rotate(90)"/>
        <line x1="-0.75" y1="0" x2="0.75" y2="0" transform="rotate(120)"/>
        <line x1="-0.75" y1="0" x2="0.75" y2="0" transform="rotate(150)"/>
        <circle cx="0" cy="0" r="0.5"/>
    </g>

    <polygon id="vane" points="0,0 0.5,0.1 1.5,0 0.5,-0.1"
               fill="rgb(225,200,200)" stroke="rgb(150,100,100)" stroke-width="0.015"/>
               
    <g id="windmill">  <!-- A windmill with a rotating set of three vanes. -->
        <rect x="-0.05" y="0" width="0.1" height="3" fill="#AA9999"/>
        <g transform="translate(0,3)">
            <g transform="rotate(0)">  <!-- The set of three rotating vanes -->
                <animateTransform attributeName="transform" attributeType="XML"
                            type="rotate" from="360" to="0" dur="7s" 
                            fill="remove" repeatCount="indefinite"/>   
                <use xlink:href="#vane"/>
                <use xlink:href="#vane" transform="rotate(120)"/>
                <use xlink:href="#vane" transform="rotate(240)"/>
            </g>
        </g>
    </g>

</defs>


<g transform="translate(0,4) scale(1,-1)">
    <rect x="0" y="-1" width="7" height="5" fill="rgb(220,230,255)"/>  <!-- sky as background-->
    <polygon points="0,-1 0,0.8 1.5,1.65 1.8,1.3 3,2.1 4.7,0.7,6.1,1.2,7,0.8,7,-1" fill="green"/> <!-- mountains -->
    <rect x="0" y="-0.4" width="7" height="0.8" fill="rgb(80,80,95)"/>  <!-- road -->
    <rect x="0" y="-0.02" width="7" height="0.04" fill="rgb(220,230,255)"/>  <!-- stripe in road -->
    <use xlink:href="#sun" transform="translate(5.8,3.2)"/>  <!-- sun -->
    <use xlink:href="#windmill" transform="translate(0.75,1) scale(0.6,0.6)"/> <!-- three windmills -->
    <use xlink:href="#windmill" transform="translate(2.2,1.3) scale(0.4,0.4)"/>
    <use xlink:href="#windmill" transform="translate(3.7,0.8) scale(0.7,0.7)"/>
    <use xlink:href="#cart"/> <!-- cart -->
</g>

</svg>

