<?xml version="1.0"?>
<!DOCTYPE svg PUBLIC "-//W3C//DTD SVG 1.1//EN" 
  "http://www.w3.org/Graphics/SVG/1.1/DTD/svg11.dtd">
<svg version="1.1"
     xmlns="http://www.w3.org/2000/svg"
     xmlns:xlink="http://www.w3.org/1999/xlink"
     width="400" height="300" 
     viewBox="-4 -3 8 6">
     
<!-- An example of hierarchical modeling.  Simple models are created of a
     wheel and a cart.  A wheel is used as a component in the cart, and a
     copy is shown in the main image.  Four copies of the cart model are
     shown in the main image, with different transforms and fill colors. -->

<defs>  <!-- Objects are defined in this section, but are not drawn here -->

    <!-- Define an object that represents a wheel centered at (0,0) and with
         radius 1.  The wheel is made out of several filled circles, with
         thin rectangles for the spokes. -->

    <g id="wheel">
        <circle cx="0" cy="0" r="1" fill="black"/>
        <circle cx="0" cy="0" r="0.8" fill="lightGray"/>
        <rect x="-0.9" y="-0.05" width="1.8" height=".1" fill="black"/>
        <rect x="-0.9" y="-0.05" width="1.8" height=".1" fill="black" 
                                                  transform="rotate(120)"/>
        <rect x="-0.9" y="-0.05" width="1.8" height=".1" fill="black" 
                                                  transform="rotate(240)"/>
        <circle cx="0" cy="0" r="0.2" fill="black"/>
    </g>
    
    <!-- Define an object that represents a cart made out of two wheels,
          with two rectangles for the body of the cart. -->
         
    <g id="cart">
       <use xlink:href="#wheel" transform="translate(-1.5,-0.1) scale(0.8,0.8)"/>
       <use xlink:href="#wheel" transform="translate(1.5,-0.1) scale(0.8,0.8)"/>
       <rect x="-3" y="0" width="6" height="2"/>
       <rect x="-2.3" y="1.9" width="2.6" height="1"/>
    </g>

</defs>

<!-- The main image shows a wheel and four carts. -->

<g transform="scale(1,-1)">  <!-- flip the coordinate system vertically -->
    <use xlink:href="#wheel"/>
    <use xlink:href="#cart" fill="red" transform="translate(2.2,1.5) scale(0.5,0.5)"/>
    <use xlink:href="#cart" fill="blue" transform="translate(-2.2,1.5) rotate(30) scale(0.4,0.4)"/>
    <use xlink:href="#cart" fill="green" transform="translate(2,-1.8) scale(0.3,0.3)"/>
    <use xlink:href="#cart" fill="orange" transform="translate(-2.3,-1.6) rotate(-75) scale(0.4,0.4)"/>
</g>

</svg>