<?xml version="1.0" encoding="UTF-8" standalone="no"?>
<!-- Created with Inkscape (http://www.inkscape.org/) -->

<svg
   xmlns:dc="http://purl.org/dc/elements/1.1/"
   xmlns:cc="http://creativecommons.org/ns#"
   xmlns:rdf="http://www.w3.org/1999/02/22-rdf-syntax-ns#"
   xmlns:svg="http://www.w3.org/2000/svg"
   xmlns="http://www.w3.org/2000/svg"
   xmlns:sodipodi="http://sodipodi.sourceforge.net/DTD/sodipodi-0.dtd"
   xmlns:inkscape="http://www.inkscape.org/namespaces/inkscape"
   width="446"
   height="81.24913"
   id="svg2"
   version="1.1"
   inkscape:version="0.48.4 r9939"
   sodipodi:docname="close-light.svg"
   inkscape:export-filename="/home/eck/eclipse-workspace/graphicstext/c07-webgl3d/close-light.png"
   inkscape:export-xdpi="90"
   inkscape:export-ydpi="90">
  <sodipodi:namedview
     id="base"
     pagecolor="#ffffff"
     bordercolor="#666666"
     borderopacity="1.0"
     inkscape:pageopacity="0.0"
     inkscape:pageshadow="2"
     inkscape:zoom="1"
     inkscape:cx="50.67788"
     inkscape:cy="23.60615"
     inkscape:document-units="px"
     inkscape:current-layer="layer1"
     showgrid="false"
     showguides="true"
     inkscape:guide-bbox="true"
     inkscape:window-width="1680"
     inkscape:window-height="995"
     inkscape:window-x="0"
     inkscape:window-y="30"
     inkscape:window-maximized="1"
     fit-margin-top="0"
     fit-margin-left="0"
     fit-margin-right="0"
     fit-margin-bottom="0" />
  <defs
     id="defs4">
    <marker
       inkscape:stockid="Arrow2Mend"
       orient="auto"
       refY="0"
       refX="0"
       id="Arrow2Mend"
       style="overflow:visible">
      <path
         id="path3804"
         style="fill-rule:evenodd;stroke-width:0.625;stroke-linejoin:round"
         d="M 8.7185878,4.0337352 -2.2072895,0.01601326 8.7185884,-4.0017078 c -1.7454984,2.3720609 -1.7354408,5.6174519 -6e-7,8.035443 z"
         transform="scale(-0.6,-0.6)"
         inkscape:connector-curvature="0" />
    </marker>
    <marker
       inkscape:stockid="Arrow2Mendz"
       orient="auto"
       refY="0"
       refX="0"
       id="Arrow2Mendz"
       style="overflow:visible">
      <path
         id="path4972"
         style="fill:#ff0000;fill-rule:evenodd;stroke:#ff0000;stroke-width:0.625;stroke-linejoin:round"
         d="M 8.7185878,4.0337352 -2.2072895,0.01601326 8.7185884,-4.0017078 c -1.7454984,2.3720609 -1.7354408,5.6174519 -6e-7,8.035443 z"
         transform="scale(-0.6,-0.6)"
         inkscape:connector-curvature="0" />
    </marker>
    <marker
       inkscape:stockid="Arrow2MendG"
       orient="auto"
       refY="0"
       refX="0"
       id="Arrow2MendG"
       style="overflow:visible">
      <path
         id="path4975"
         style="fill:#ff0000;fill-rule:evenodd;stroke:#ff0000;stroke-width:0.625;stroke-linejoin:round"
         d="M 8.7185878,4.0337352 -2.2072895,0.01601326 8.7185884,-4.0017078 c -1.7454984,2.3720609 -1.7354408,5.6174519 -6e-7,8.035443 z"
         transform="scale(-0.6,-0.6)"
         inkscape:connector-curvature="0" />
    </marker>
    <marker
       inkscape:stockid="Arrow2Mendv"
       orient="auto"
       refY="0"
       refX="0"
       id="Arrow2Mendv"
       style="overflow:visible">
      <path
         id="path4978"
         style="fill:#ff0000;fill-rule:evenodd;stroke:#ff0000;stroke-width:0.625;stroke-linejoin:round"
         d="M 8.7185878,4.0337352 -2.2072895,0.01601326 8.7185884,-4.0017078 c -1.7454984,2.3720609 -1.7354408,5.6174519 -6e-7,8.035443 z"
         transform="scale(-0.6,-0.6)"
         inkscape:connector-curvature="0" />
    </marker>
    <marker
       inkscape:stockid="Arrow2Mendb"
       orient="auto"
       refY="0"
       refX="0"
       id="Arrow2Mendb"
       style="overflow:visible">
      <path
         id="path4981"
         style="fill:#ff0000;fill-rule:evenodd;stroke:#ff0000;stroke-width:0.625;stroke-linejoin:round"
         d="M 8.7185878,4.0337352 -2.2072895,0.01601326 8.7185884,-4.0017078 c -1.7454984,2.3720609 -1.7354408,5.6174519 -6e-7,8.035443 z"
         transform="scale(-0.6,-0.6)"
         inkscape:connector-curvature="0" />
    </marker>
    <marker
       inkscape:stockid="Arrow2MendG0"
       orient="auto"
       refY="0"
       refX="0"
       id="Arrow2MendG0"
       style="overflow:visible">
      <path
         id="path4984"
         style="fill:#ff0000;fill-rule:evenodd;stroke:#ff0000;stroke-width:0.625;stroke-linejoin:round"
         d="M 8.7185878,4.0337352 -2.2072895,0.01601326 8.7185884,-4.0017078 c -1.7454984,2.3720609 -1.7354408,5.6174519 -6e-7,8.035443 z"
         transform="scale(-0.6,-0.6)"
         inkscape:connector-curvature="0" />
    </marker>
    <marker
       inkscape:stockid="Arrow2Mendn"
       orient="auto"
       refY="0"
       refX="0"
       id="Arrow2Mendn"
       style="overflow:visible">
      <path
         id="path4987"
         style="fill:#ff0000;fill-rule:evenodd;stroke:#ff0000;stroke-width:0.625;stroke-linejoin:round"
         d="M 8.7185878,4.0337352 -2.2072895,0.01601326 8.7185884,-4.0017078 c -1.7454984,2.3720609 -1.7354408,5.6174519 -6e-7,8.035443 z"
         transform="scale(-0.6,-0.6)"
         inkscape:connector-curvature="0" />
    </marker>
    <marker
       inkscape:stockid="Arrow2MendGC"
       orient="auto"
       refY="0"
       refX="0"
       id="Arrow2MendGC"
       style="overflow:visible">
      <path
         id="path5051"
         style="fill:#0000ff;fill-rule:evenodd;stroke:#0000ff;stroke-width:0.625;stroke-linejoin:round"
         d="M 8.7185878,4.0337352 -2.2072895,0.01601326 8.7185884,-4.0017078 c -1.7454984,2.3720609 -1.7354408,5.6174519 -6e-7,8.035443 z"
         transform="scale(-0.6,-0.6)"
         inkscape:connector-curvature="0" />
    </marker>
    <marker
       inkscape:stockid="Arrow2MendnM"
       orient="auto"
       refY="0"
       refX="0"
       id="Arrow2MendnM"
       style="overflow:visible">
      <path
         id="path5054"
         style="fill:#0000ff;fill-rule:evenodd;stroke:#0000ff;stroke-width:0.625;stroke-linejoin:round"
         d="M 8.7185878,4.0337352 -2.2072895,0.01601326 8.7185884,-4.0017078 c -1.7454984,2.3720609 -1.7354408,5.6174519 -6e-7,8.035443 z"
         transform="scale(-0.6,-0.6)"
         inkscape:connector-curvature="0" />
    </marker>
  </defs>
  <metadata
     id="metadata7">
    <rdf:RDF>
      <cc:Work
         rdf:about="">
        <dc:format>image/svg+xml</dc:format>
        <dc:type
           rdf:resource="http://purl.org/dc/dcmitype/StillImage" />
        <dc:title></dc:title>
      </cc:Work>
    </rdf:RDF>
  </metadata>
  <g
     inkscape:label="Layer 1"
     inkscape:groupmode="layer"
     id="layer1"
     transform="translate(-94,-298.11305)">
    <path
       style="fill:none;stroke:#800000;stroke-width:1px;stroke-linecap:butt;stroke-linejoin:miter;stroke-opacity:1"
       d="m 100,373.36218 210,-66 224,66"
       id="path5122"
       inkscape:connector-curvature="0" />
    <path
       style="fill:none;stroke:#800000;stroke-width:1px;stroke-linecap:butt;stroke-linejoin:miter;stroke-opacity:1"
       d="m 309,308.36218 0,65"
       id="path5124"
       inkscape:connector-curvature="0" />
    <path
       style="fill:none;stroke:#800000;stroke-width:1px;stroke-linecap:butt;stroke-linejoin:miter;stroke-opacity:1"
       d="m 199,373.36218 110,-65 115,65"
       id="path5126"
       inkscape:connector-curvature="0" />
    <path
       sodipodi:type="star"
       style="fill:#ffff00;fill-rule:evenodd;stroke:#000000;stroke-width:1px;stroke-linecap:butt;stroke-linejoin:miter;stroke-opacity:1"
       id="path5120"
       sodipodi:sides="5"
       sodipodi:cx="313"
       sodipodi:cy="231.36218"
       sodipodi:r1="9.8994951"
       sodipodi:r2="4.2004156"
       sodipodi:arg1="0.78539816"
       sodipodi:arg2="1.4137167"
       inkscape:flatsided="false"
       inkscape:rounded="0"
       inkscape:randomized="0"
       d="m 320,238.36218 -6.34291,-2.8513 -5.15137,4.67182 0.75168,-6.91357 -6.03502,-3.45557 6.80748,-1.42152 1.42152,-6.80747 3.45557,6.03501 6.91356,-0.75167 -4.67181,5.15136 z"
       inkscape:transform-center-y="-10.051146"
       transform="matrix(0.99101397,0.1337584,-0.1337584,0.99101397,30.001661,37.360412)"
       inkscape:transform-center-x="-1.6508428" />
    <path
       style="fill:none;stroke:#000000;stroke-width:3;stroke-linecap:butt;stroke-linejoin:miter;stroke-miterlimit:4;stroke-opacity:1;stroke-dasharray:none"
       d="m 100,373.36218 432,0"
       id="path5116"
       inkscape:connector-curvature="0" />
    <path
       transform="translate(476,179)"
       d="m 64,194.36218 c 0,3.31371 -2.686292,6 -6,6 -3.313708,0 -6,-2.68629 -6,-6 0,-3.31371 2.686292,-6 6,-6 3.313708,0 6,2.68629 6,6 z"
       sodipodi:ry="6"
       sodipodi:rx="6"
       sodipodi:cy="194.36218"
       sodipodi:cx="58"
       id="path5114"
       style="color:#000000;fill:#000000;stroke:none;stroke-width:2;marker:none;visibility:visible;display:inline;overflow:visible;enable-background:accumulate"
       sodipodi:type="arc" />
    <path
       sodipodi:type="arc"
       style="color:#000000;fill:#000000;stroke:none;stroke-width:2;marker:none;visibility:visible;display:inline;overflow:visible;enable-background:accumulate"
       id="path5112"
       sodipodi:cx="58"
       sodipodi:cy="194.36218"
       sodipodi:rx="6"
       sodipodi:ry="6"
       d="m 64,194.36218 c 0,3.31371 -2.686292,6 -6,6 -3.313708,0 -6,-2.68629 -6,-6 0,-3.31371 2.686292,-6 6,-6 3.313708,0 6,2.68629 6,6 z"
       transform="translate(42,179)" />
  </g>
</svg>
