<?xml version="1.0" encoding="UTF-8" standalone="no"?>
<!-- Created with Inkscape (http://www.inkscape.org/) -->

<svg
   xmlns:dc="http://purl.org/dc/elements/1.1/"
   xmlns:cc="http://creativecommons.org/ns#"
   xmlns:rdf="http://www.w3.org/1999/02/22-rdf-syntax-ns#"
   xmlns:svg="http://www.w3.org/2000/svg"
   xmlns="http://www.w3.org/2000/svg"
   xmlns:sodipodi="http://sodipodi.sourceforge.net/DTD/sodipodi-0.dtd"
   xmlns:inkscape="http://www.inkscape.org/namespaces/inkscape"
   width="65.1399mm"
   height="46.780987mm"
   viewBox="0 0 230.81067 165.7594"
   id="svg2"
   version="1.1"
   inkscape:version="0.91 r"
   sodipodi:docname="inkscape-set-difference.svg"
   inkscape:export-filename="/home/eck/Desktop/inkscape/inkscape-set-difference.png"
   inkscape:export-xdpi="90"
   inkscape:export-ydpi="90">
  <defs
     id="defs4">
    <symbol
       id="Mail">
      <title
         id="title4178">Mail</title>
      <g
         style="fill:none;stroke-width:4"
         id="g4180">
        <path
           d="m 10.5,55.1 51,0 0,-37.6 -51,0 0,37.6 z"
           id="path4182"
           inkscape:connector-curvature="0" />
        <path
           d="m 11,17.75 22,22.6 c 1.6,1.6 4.4,1.6 6,0.0125 L 61,17.75"
           id="path4184"
           inkscape:connector-curvature="0" />
        <path
           d="M 12,54 28.9,37"
           id="path4186"
           inkscape:connector-curvature="0" />
        <path
           d="M 60,54 43.1,37"
           id="path4188"
           inkscape:connector-curvature="0" />
      </g>
    </symbol>
    <symbol
       id="CoatCheck_Inv">
      <title
         id="title4363">Coat Check</title>
      <rect
         x="0.5"
         y="0.5"
         width="71"
         height="71"
         ry="6"
         style="stroke:#ffffff"
         id="rect4365" />
      <path
         d="M 36,31 61,45.5 A 3.5,3.5 0 0 1 59.5,52 l -47,0 A 3.5,3.5 0 0 1 11,45.5 L 36,31 36,28 A 4,4 0 0 0 34,24.6 5.5,5.5 0 1 1 41.5,20"
         style="fill:none;stroke:#ffffff;stroke-width:4;stroke-linecap:round"
         id="path4367"
         inkscape:connector-curvature="0" />
    </symbol>
    <symbol
       id="CoatCheck">
      <title
         id="title4358">Coat Check</title>
      <path
         d="M 36,31 61,45.5 A 3.5,3.5 0 0 1 59.5,52 l -47,0 A 3.5,3.5 0 0 1 11,45.5 L 36,31 36,28 A 4,4 0 0 0 34,24.6 5.5,5.5 0 1 1 41.5,20"
         style="fill:none;stroke-width:4;stroke-linecap:round"
         id="path4360"
         inkscape:connector-curvature="0" />
    </symbol>
    <symbol
       id="Or_Gate">
      <title
         id="title7958">Or Gate</title>
      <path
         d="M 24.65625,70 45,70 C 65,70 75,50 75,50 75,50 70,30 45,30 l -20.34375,0 c 1.789926,3.094188 3.151364,6.453471 4.0625,10 C 29.54012,43.197121 30,46.545819 30,50 c 0,3.454181 -0.45988,6.802879 -1.28125,10 -0.911136,3.546529 -2.272574,6.905812 -4.0625,10 z"
         id="path7960"
         inkscape:connector-curvature="0" />
    </symbol>
    <symbol
       id="BoatTour_Inv">
      <title
         id="title6018">Boat Tour</title>
      <rect
         x="0.5"
         y="0.5"
         width="71"
         height="71"
         ry="6"
         style="stroke:#ffffff"
         id="rect6020" />
      <path
         d="m 6,54 c 2.5,0 5,-1.75 7.5,-1.75 2.5,0 5,1.75 7.5,1.75 2.5,0 5,-1.75 7.5,-1.75 2.5,0 5,1.75 7.5,1.75 2.5,0 5,-1.75 7.5,-1.75 2.5,0 5,1.75 7.5,1.75 2.5,0 5,-1.75 7.5,-1.75 2.5,0 5,1.75 7.5,1.75 l 0,5.5 c -2.5,0 -5,-1.75 -7.5,-1.75 -2.5,0 -5,1.75 -7.5,1.75 -2.5,0 -5,-1.75 -7.5,-1.75 -2.5,0 -5,1.75 -7.5,1.75 -2.5,0 -5,-1.75 -7.5,-1.75 -2.5,0 -5,1.75 -7.5,1.75 -2.5,0 -5,-1.75 -7.5,-1.75 -2.5,0 -5,1.75 -7.5,1.75 z"
         style="fill:#ffffff;stroke:none"
         id="path6022"
         inkscape:connector-curvature="0" />
      <path
         d="m 6,35.625 61,0 C 63.5,42 56,48.75 51,48.75 48.5,48.75 46,47 43.5,47 41,47 38.5,48.75 36,48.75 33.5,48.75 31,47 28.5,47 26,47 23.5,48.75 21,48.75 18.5,48.75 16,47 13.5,47 11,47 8.5,48.75 6,48.75 Z"
         style="fill:#ffffff;stroke:none"
         id="path6024"
         inkscape:connector-curvature="0" />
      <path
         d="m 40,21.625 9,0 c 0,0 2.375,0 3.125,1.625 l 3.375,8 -11.5,0 z M 16,30.25 c 0,0.625 -0.375,1 -1,1 l -5,0 c -0.625,0 -1,-0.375 -1,-1 l 0,-7.625 c 0,-0.625 0.375,-1 1,-1 l 5,0 c 0.625,0 1,0.375 1,1 z M 6,33.5 59,33.5 53.625,20.875 C 52.125,17.625 48.25,18 48.25,18 L 6,18 m 30.25,12.25 c 0,0.625 -0.375,1 -1,1 l -5,0 c -0.625,0 -1,-0.375 -1,-1 l 0,-7.625 c 0,-0.625 0.375,-1 1,-1 l 5,0 c 0.625,0 1,0.375 1,1 z m -10,0 c 0,0.625 -0.375,1 -1,1 l -5,0 c -0.625,0 -1,-0.375 -1,-1 l 0,-7.625 c 0,-0.625 0.375,-1 1,-1 l 5,0 c 0.625,0 1,0.375 1,1 z"
         style="fill:#ffffff;stroke:none"
         id="path6026"
         inkscape:connector-curvature="0" />
    </symbol>
    <filter
       style="color-interpolation-filters:sRGB"
       inkscape:label="Blur"
       id="filter9877">
      <feGaussianBlur
         stdDeviation="10 10"
         result="blur"
         id="feGaussianBlur9879" />
    </filter>
  </defs>
  <sodipodi:namedview
     id="base"
     pagecolor="#ffffff"
     bordercolor="#666666"
     borderopacity="1.0"
     inkscape:pageopacity="0.0"
     inkscape:pageshadow="2"
     inkscape:zoom="1"
     inkscape:cx="214.83926"
     inkscape:cy="10.394133"
     inkscape:document-units="px"
     inkscape:current-layer="layer1"
     showgrid="false"
     fit-margin-top="0"
     fit-margin-left="0"
     fit-margin-right="0"
     fit-margin-bottom="0" />
  <metadata
     id="metadata7">
    <rdf:RDF>
      <cc:Work
         rdf:about="">
        <dc:format>image/svg+xml</dc:format>
        <dc:type
           rdf:resource="http://purl.org/dc/dcmitype/StillImage" />
        <dc:title></dc:title>
      </cc:Work>
    </rdf:RDF>
  </metadata>
  <g
     inkscape:label="Layer 1"
     inkscape:groupmode="layer"
     id="layer1"
     transform="translate(-177.45263,-192.98163)">
    <rect
       style="color:#000000;display:inline;overflow:visible;visibility:visible;fill:#0000ff;fill-rule:evenodd;stroke:none;stroke-width:2;stroke-linecap:butt;stroke-linejoin:miter;stroke-miterlimit:4;stroke-dasharray:none;stroke-dashoffset:0;stroke-opacity:1;marker:none;enable-background:accumulate"
       id="rect9962"
       width="247.5"
       height="13.646617"
       x="32.199799"
       y="356.72583"
       transform="matrix(0.90966751,-0.41533723,0.41533723,0.90966751,0,0)" />
    <path
       style="color:#000000;display:inline;overflow:visible;visibility:visible;fill:#ff0000;fill-rule:evenodd;stroke:#000000;stroke-width:2;stroke-linecap:butt;stroke-linejoin:miter;stroke-miterlimit:4;stroke-dasharray:none;stroke-dashoffset:0;stroke-opacity:1;marker:none;enable-background:accumulate"
       d="m 291.9275,193.98163 a 81.879699,81.879699 0 0 0 -81.8797,81.8797 81.879699,81.879699 0 0 0 81.8797,81.8797 81.879699,81.879699 0 0 0 81.8797,-81.8797 81.879699,81.879699 0 0 0 -81.8797,-81.8797 z m -26.05263,55.82707 52.10526,0 0,52.10526 -52.10526,0 0,-52.10526 z"
       id="path9957"
       inkscape:connector-curvature="0" />
  </g>
</svg>
