<?xml version="1.0" encoding="UTF-8" standalone="no"?>
<!-- Created with Inkscape (http://www.inkscape.org/) -->

<svg
   xmlns:dc="http://purl.org/dc/elements/1.1/"
   xmlns:cc="http://creativecommons.org/ns#"
   xmlns:rdf="http://www.w3.org/1999/02/22-rdf-syntax-ns#"
   xmlns:svg="http://www.w3.org/2000/svg"
   xmlns="http://www.w3.org/2000/svg"
   xmlns:sodipodi="http://sodipodi.sourceforge.net/DTD/sodipodi-0.dtd"
   xmlns:inkscape="http://www.inkscape.org/namespaces/inkscape"
   width="226"
   height="226"
   id="svg2"
   sodipodi:version="0.32"
   inkscape:version="0.48.4 r9939"
   sodipodi:docname="scale-2d.svg"
   inkscape:output_extension="org.inkscape.output.svg.inkscape"
   inkscape:export-filename="/home/eck/eclipse-workspace/graphicstext/c02-graphics2d/scale-2d.png"
   inkscape:export-xdpi="90"
   inkscape:export-ydpi="90"
   version="1.1">
  <sodipodi:namedview
     id="base"
     pagecolor="#ffffff"
     bordercolor="#666666"
     borderopacity="1.0"
     gridtolerance="10000"
     guidetolerance="10"
     objecttolerance="10"
     inkscape:pageopacity="0.0"
     inkscape:pageshadow="2"
     inkscape:zoom="1"
     inkscape:cx="123.32817"
     inkscape:cy="129.03128"
     inkscape:document-units="px"
     inkscape:current-layer="layer1"
     inkscape:window-width="1116"
     inkscape:window-height="834"
     inkscape:window-x="205"
     inkscape:window-y="30"
     showgrid="false"
     fit-margin-top="2"
     fit-margin-left="2"
     fit-margin-right="2"
     fit-margin-bottom="2"
     inkscape:window-maximized="0"
     showguides="true"
     inkscape:guide-bbox="true" />
  <defs
     id="defs4">
    <marker
       style="overflow:visible;"
       id="Arrow2Mend"
       refX="0.0"
       refY="0.0"
       orient="auto"
       inkscape:stockid="Arrow2Mend">
      <path
         transform="scale(0.6) rotate(180) translate(0,0)"
         d="M 8.7185878,4.0337352 L -2.2072895,0.016013256 L 8.7185884,-4.0017078 C 6.9730900,-1.6296469 6.9831476,1.6157441 8.7185878,4.0337352 z "
         style="fill-rule:evenodd;stroke-width:0.62500000;stroke-linejoin:round;"
         id="path4163" />
    </marker>
    <marker
       style="overflow:visible;"
       id="Arrow2Send"
       refX="0.0"
       refY="0.0"
       orient="auto"
       inkscape:stockid="Arrow2Send">
      <path
         transform="scale(0.3) rotate(180) translate(-2.3,0)"
         d="M 8.7185878,4.0337352 L -2.2072895,0.016013256 L 8.7185884,-4.0017078 C 6.9730900,-1.6296469 6.9831476,1.6157441 8.7185878,4.0337352 z "
         style="fill-rule:evenodd;stroke-width:0.62500000;stroke-linejoin:round;"
         id="path4169" />
    </marker>
    <marker
       style="overflow:visible"
       id="Arrow1Send"
       refX="0"
       refY="0"
       orient="auto"
       inkscape:stockid="Arrow1Send">
      <path
         inkscape:connector-curvature="0"
         transform="matrix(-0.2,0,0,-0.2,-1.2,0)"
         style="fill-rule:evenodd;stroke:#000000;stroke-width:1pt;marker-start:none"
         d="M 0,0 5,-5 -12.5,0 5,5 0,0 z"
         id="path8421" />
    </marker>
    <marker
       style="overflow:visible"
       id="Arrow1Mend"
       refX="0"
       refY="0"
       orient="auto"
       inkscape:stockid="Arrow1Mend">
      <path
         inkscape:connector-curvature="0"
         transform="matrix(-0.4,0,0,-0.4,-4,0)"
         style="fill-rule:evenodd;stroke:#000000;stroke-width:1pt;marker-start:none"
         d="M 0,0 5,-5 -12.5,0 5,5 0,0 z"
         id="path8415" />
    </marker>
    <marker
       style="overflow:visible"
       id="Arrow2Lend"
       refX="0"
       refY="0"
       orient="auto"
       inkscape:stockid="Arrow2Lend">
      <path
         inkscape:connector-curvature="0"
         transform="matrix(-1.1,0,0,-1.1,-1.1,0)"
         d="M 8.7185878,4.0337352 -2.2072895,0.01601326 8.7185884,-4.0017078 c -1.7454984,2.3720609 -1.7354408,5.6174519 -6e-7,8.035443 z"
         style="font-size:12px;fill-rule:evenodd;stroke-width:0.625;stroke-linejoin:round"
         id="path8427" />
    </marker>
    <marker
       style="overflow:visible"
       id="Arrow1Send6"
       refX="0"
       refY="0"
       orient="auto"
       inkscape:stockid="Arrow1Send6">
      <path
         inkscape:connector-curvature="0"
         transform="matrix(-0.2,0,0,-0.2,-1.2,0)"
         style="marker-start:none;stroke:#0000ff;stroke-width:1pt;fill:#0000ff;fill-rule:evenodd"
         d="M 0,0 5,-5 -12.5,0 5,5 0,0 z"
         id="path7511" />
    </marker>
  </defs>
  <metadata
     id="metadata7">
    <rdf:RDF>
      <cc:Work
         rdf:about="">
        <dc:format>image/svg+xml</dc:format>
        <dc:type
           rdf:resource="http://purl.org/dc/dcmitype/StillImage" />
        <dc:title></dc:title>
      </cc:Work>
    </rdf:RDF>
  </metadata>
  <g
     style="display:inline"
     transform="translate(152,1606.6378)"
     id="layer1"
     inkscape:groupmode="layer"
     inkscape:label="Layer 1">
    <rect
       ry="0"
       y="-1604.6378"
       x="-150"
       height="222"
       width="222"
       id="rect9759"
       style="fill:#ffffff;fill-opacity:1;stroke:none" />
    <g
       transform="matrix(0.5994172,0,0,0.5994172,-57.327984,-640.79853)"
       id="g9721">
      <path
         inkscape:connector-curvature="0"
         style="fill:none;stroke:#7d7d7d;stroke-width:1.66828716;stroke-linecap:butt;stroke-linejoin:miter;stroke-miterlimit:4;stroke-opacity:1;stroke-dasharray:none"
         d="m -143.69831,-1597.0262 c 0,348.4908 0,348.4908 0,348.4908"
         id="path2378" />
      <path
         inkscape:connector-curvature="0"
         style="fill:none;stroke:#7d7d7d;stroke-width:1.66828716;stroke-linecap:butt;stroke-linejoin:miter;stroke-miterlimit:4;stroke-opacity:1;stroke-dasharray:none"
         d="m -114.75284,-1597.0262 c 0,348.4908 0,348.4908 0,348.4908"
         id="path3351" />
      <path
         inkscape:connector-curvature="0"
         style="fill:none;stroke:#7d7d7d;stroke-width:1.66828716;stroke-linecap:butt;stroke-linejoin:miter;stroke-miterlimit:4;stroke-opacity:1;stroke-dasharray:none"
         d="m -85.807394,-1597.0262 c 0,348.4908 0,348.4908 0,348.4908"
         id="path3353" />
      <path
         inkscape:connector-curvature="0"
         style="fill:none;stroke:#7d7d7d;stroke-width:1.66828716;stroke-linecap:butt;stroke-linejoin:miter;stroke-miterlimit:4;stroke-opacity:1;stroke-dasharray:none"
         d="m -56.861926,-1597.0262 c 0,348.4908 0,348.4908 0,348.4908"
         id="path3355" />
      <path
         inkscape:connector-curvature="0"
         style="fill:none;stroke:#7d7d7d;stroke-width:1.66828716;stroke-linecap:butt;stroke-linejoin:miter;stroke-miterlimit:4;stroke-opacity:1;stroke-dasharray:none"
         d="m -27.91648,-1597.0262 c 0,348.4908 0,348.4908 0,348.4908"
         id="path3357" />
      <path
         inkscape:connector-curvature="0"
         style="fill:none;stroke:#7d7d7d;stroke-width:1.66828716;stroke-linecap:butt;stroke-linejoin:miter;stroke-miterlimit:4;stroke-opacity:1;stroke-dasharray:none"
         d="m 1.028978,-1597.0262 c 0,348.4908 0,348.4908 0,348.4908"
         id="path3359" />
      <path
         inkscape:connector-curvature="0"
         style="fill:none;stroke:#000000;stroke-width:1.66828716;stroke-linecap:butt;stroke-linejoin:miter;stroke-miterlimit:4;stroke-opacity:1;stroke-dasharray:none"
         d="m 29.974436,-1597.0262 c 0,348.4908 0,348.4908 0,348.4908"
         id="path3361" />
      <path
         inkscape:connector-curvature="0"
         style="fill:none;stroke:#7d7d7d;stroke-width:1.66828716;stroke-linecap:butt;stroke-linejoin:miter;stroke-miterlimit:4;stroke-opacity:1;stroke-dasharray:none"
         d="m 58.919892,-1597.0262 c 0,348.4908 0,348.4908 0,348.4908"
         id="path3363" />
      <path
         inkscape:connector-curvature="0"
         style="fill:none;stroke:#7d7d7d;stroke-width:1.66828716;stroke-linecap:butt;stroke-linejoin:miter;stroke-miterlimit:4;stroke-opacity:1;stroke-dasharray:none"
         d="m 87.865355,-1597.0262 c 0,348.4908 0,348.4908 0,348.4908"
         id="path3365" />
      <path
         inkscape:connector-curvature="0"
         style="fill:none;stroke:#7d7d7d;stroke-width:1.66828716;stroke-linecap:butt;stroke-linejoin:miter;stroke-miterlimit:4;stroke-opacity:1;stroke-dasharray:none"
         d="m 116.81081,-1597.0262 c 0,348.4908 0,348.4908 0,348.4908"
         id="path3367" />
      <path
         inkscape:connector-curvature="0"
         style="fill:none;stroke:#7d7d7d;stroke-width:1.66828716;stroke-linecap:butt;stroke-linejoin:miter;stroke-miterlimit:4;stroke-opacity:1;stroke-dasharray:none"
         d="m 145.75627,-1597.0262 c 0,348.4908 0,348.4908 0,348.4908"
         id="path3369" />
      <path
         inkscape:connector-curvature="0"
         style="fill:none;stroke:#7d7d7d;stroke-width:1.66828716;stroke-linecap:butt;stroke-linejoin:miter;stroke-miterlimit:4;stroke-opacity:1;stroke-dasharray:none"
         d="m 174.70172,-1597.0262 c 0,348.4908 0,348.4908 0,348.4908"
         id="path3371" />
      <path
         inkscape:connector-curvature="0"
         style="fill:none;stroke:#7d7d7d;stroke-width:1.66828716;stroke-linecap:butt;stroke-linejoin:miter;stroke-miterlimit:4;stroke-opacity:1;stroke-dasharray:none"
         d="m 203.64719,-1597.0262 c 0,348.4908 0,348.4908 0,348.4908"
         id="path3373" />
      <path
         inkscape:connector-curvature="0"
         style="fill:none;stroke:#7d7d7d;stroke-width:1.66828716;stroke-linecap:butt;stroke-linejoin:miter;stroke-miterlimit:4;stroke-opacity:1;stroke-dasharray:none"
         d="m 204.85099,-1596.4536 c -348.4904,0 -348.4904,0 -348.4904,0"
         id="path3392" />
      <path
         inkscape:connector-curvature="0"
         style="fill:none;stroke:#7d7d7d;stroke-width:1.66828716;stroke-linecap:butt;stroke-linejoin:miter;stroke-miterlimit:4;stroke-opacity:1;stroke-dasharray:none"
         d="m 204.85099,-1567.5082 c -348.4904,0 -348.4904,0 -348.4904,0"
         id="path3394" />
      <path
         inkscape:connector-curvature="0"
         style="fill:none;stroke:#7d7d7d;stroke-width:1.66828716;stroke-linecap:butt;stroke-linejoin:miter;stroke-miterlimit:4;stroke-opacity:1;stroke-dasharray:none"
         d="m 204.85099,-1538.5626 c -348.4904,0 -348.4904,0 -348.4904,0"
         id="path3396" />
      <path
         inkscape:connector-curvature="0"
         style="fill:none;stroke:#7d7d7d;stroke-width:1.66828716;stroke-linecap:butt;stroke-linejoin:miter;stroke-miterlimit:4;stroke-opacity:1;stroke-dasharray:none"
         d="m 204.85099,-1509.6172 c -348.4904,0 -348.4904,0 -348.4904,0"
         id="path3398" />
      <path
         inkscape:connector-curvature="0"
         style="fill:none;stroke:#7d7d7d;stroke-width:1.66828716;stroke-linecap:butt;stroke-linejoin:miter;stroke-miterlimit:4;stroke-opacity:1;stroke-dasharray:none"
         d="m 204.85099,-1480.6718 c -348.4904,0 -348.4904,0 -348.4904,0"
         id="path3400" />
      <path
         inkscape:connector-curvature="0"
         style="fill:none;stroke:#7d7d7d;stroke-width:1.66828716;stroke-linecap:butt;stroke-linejoin:miter;stroke-miterlimit:4;stroke-opacity:1;stroke-dasharray:none"
         d="m 204.85099,-1451.7262 c -348.4904,0 -348.4904,0 -348.4904,0"
         id="path3402" />
      <path
         inkscape:connector-curvature="0"
         style="fill:none;stroke:#000000;stroke-width:1.66828716;stroke-linecap:butt;stroke-linejoin:miter;stroke-miterlimit:4;stroke-opacity:1;stroke-dasharray:none"
         d="m 204.85099,-1422.7808 c -348.4904,0 -348.4904,0 -348.4904,0"
         id="path3404" />
      <path
         inkscape:connector-curvature="0"
         style="fill:none;stroke:#7d7d7d;stroke-width:1.66828716;stroke-linecap:butt;stroke-linejoin:miter;stroke-miterlimit:4;stroke-opacity:1;stroke-dasharray:none"
         d="m 204.85099,-1393.8354 c -348.49037,0 -348.49037,0 -348.49037,0"
         id="path3406" />
      <path
         inkscape:connector-curvature="0"
         style="fill:none;stroke:#7d7d7d;stroke-width:1.66828716;stroke-linecap:butt;stroke-linejoin:miter;stroke-miterlimit:4;stroke-opacity:1;stroke-dasharray:none"
         d="m 204.85099,-1364.8898 c -348.49037,0 -348.49037,0 -348.49037,0"
         id="path3408" />
      <path
         inkscape:connector-curvature="0"
         style="fill:none;stroke:#7d7d7d;stroke-width:1.66828716;stroke-linecap:butt;stroke-linejoin:miter;stroke-miterlimit:4;stroke-opacity:1;stroke-dasharray:none"
         d="m 204.85099,-1335.9444 c -348.4904,0 -348.4904,0 -348.4904,0"
         id="path3410" />
      <path
         inkscape:connector-curvature="0"
         style="fill:none;stroke:#7d7d7d;stroke-width:1.66828716;stroke-linecap:butt;stroke-linejoin:miter;stroke-miterlimit:4;stroke-opacity:1;stroke-dasharray:none"
         d="m 204.85099,-1306.9987 c -348.4904,0 -348.4904,0 -348.4904,0"
         id="path3412" />
      <path
         inkscape:connector-curvature="0"
         style="fill:none;stroke:#7d7d7d;stroke-width:1.66828716;stroke-linecap:butt;stroke-linejoin:miter;stroke-miterlimit:4;stroke-opacity:1;stroke-dasharray:none"
         d="m 204.85099,-1278.0534 c -348.4904,0 -348.4904,0 -348.4904,0"
         id="path3414" />
      <path
         inkscape:connector-curvature="0"
         style="fill:none;stroke:#7d7d7d;stroke-width:1.66828716;stroke-linecap:butt;stroke-linejoin:miter;stroke-miterlimit:4;stroke-opacity:1;stroke-dasharray:none"
         d="m 204.85099,-1249.108 c -348.4904,0 -348.4904,0 -348.4904,0"
         id="path3416" />
    </g>
    <path
       sodipodi:nodetypes="ccccccccccc"
       inkscape:connector-curvature="0"
       id="path3020"
       d="m -91.070326,-1563.6681 104.37289,0.4142 0,29 -74.37289,0 0,37 51.9999995,0 0,24 -51.5857855,-0.3536 0.09545,50 -30.741901,-0.3535 z"
       style="fill:#ff0000;stroke:#000000;stroke-width:2;stroke-linecap:butt;stroke-linejoin:miter;stroke-miterlimit:4;stroke-opacity:1;stroke-dasharray:none" />
    <path
       style="fill:#cccccc;stroke:#000000;stroke-width:2;stroke-linecap:butt;stroke-linejoin:miter;stroke-miterlimit:4;stroke-opacity:1;stroke-dasharray:none"
       d="m -56.356595,-1528.653 34.79062,0.2072 0,14.5 -24.79072,0 0,18.5 17.33316,0 0,12 -17.19509,-0.1769 0.0318,25 -10.2472,-0.1767 z"
       id="path3812"
       inkscape:connector-curvature="0"
       sodipodi:nodetypes="ccccccccccc" />
  </g>
</svg>
